<?xml version="1.0" encoding="utf-8"?>
<!-- Generator: Adobe Illustrator 23.0.1, SVG Export Plug-In . SVG Version: 6.00 Build 0)  -->
<svg version="1.1" id="Layer_1" xmlns="http://www.w3.org/2000/svg" xmlns:xlink="http://www.w3.org/1999/xlink" x="0px" y="0px"
	 viewBox="0 0 911.4 460" style="enable-background:new 0 0 911.4 460;" xml:space="preserve">
<style type="text/css">
	.st0{fill:#C49A6C;}
	.st1{fill:none;stroke:#000000;stroke-width:4;stroke-miterlimit:10;}
	.st2{fill:none;stroke:#000000;stroke-miterlimit:10;}
	.st3{fill:#020202;stroke:#000000;stroke-miterlimit:10;}
</style>
<rect y="-0.4" class="st0" width="910.7" height="460.4"/>
<g>
	<path class="st1" d="M166.1,177.7c4.1-26.8,25.5-48.8,51.3-55"/>
	<path class="st1" d="M165.6,191.5c2,27.4,22.1,53,46.9,61.1"/>
	<path class="st1" d="M231.2,144.5c16.2,7.3,27.5,23.6,27.5,42.6c0,18.8-11.2,35-27.2,42.4"/>
	<path class="st1" d="M314.4,187.1c0,36.2-29.3,65.5-65.6,65.5c-3,0-6-0.2-8.9-0.6c-2.8-0.4-5.6-0.9-8.3-1.7
		c-7.6-2.1-14.6-5.5-20.8-9.9c-3.3-2.3-6.3-5-9.1-7.9c-11.3-11.7-18.3-27.7-18.4-45.3v-0.1c0-0.8,0-1.6,0.1-2.5c0,0,0,0,0,0
		c0-0.8,0.1-1.6,0.1-2.4c0.1-0.6,0.1-1.3,0.2-1.9c0.1-0.6,0.1-1.2,0.2-1.9c0.1-0.6,0.2-1.2,0.3-1.9c0.1-0.5,0.2-1.1,0.3-1.6
		c0.1-0.5,0.2-1,0.3-1.6c0,0,0,0,0-0.1c0.1-0.4,0.2-0.8,0.3-1.1c0.1-0.4,0.2-0.8,0.3-1.1c0.1-0.5,0.3-1,0.4-1.5
		c0.2-0.8,0.4-1.5,0.7-2.3c0.3-0.9,0.6-1.8,0.9-2.6c0.3-0.9,0.6-1.7,1-2.5c0.2-0.5,0.4-1,0.6-1.4c0,0,0,0,0,0c0-0.1,0.1-0.2,0.1-0.3
		c0.4-0.8,0.8-1.7,1.2-2.5c0.2-0.5,0.5-0.9,0.7-1.4c0.2-0.3,0.4-0.7,0.6-1c0.2-0.3,0.4-0.7,0.6-1c0.2-0.4,0.5-0.9,0.7-1.3
		c0.4-0.6,0.7-1.2,1.1-1.8c0,0,0.1-0.1,0.1-0.2c0.6-0.9,1.2-1.7,1.7-2.5c0,0,0,0,0,0c0.6-0.8,1.2-1.6,1.9-2.4
		c0.4-0.5,0.7-0.9,1.2-1.4c0.1-0.1,0.2-0.2,0.3-0.3c0.3-0.4,0.6-0.7,0.9-1.1c0.1-0.1,0.1-0.1,0.1-0.2c0.5-0.6,1-1.1,1.5-1.6
		c4-4.2,8.6-7.9,13.7-10.8c4.9-2.9,10.2-5.2,15.9-6.8c2.8-0.8,5.8-1.4,8.8-1.8c2.9-0.4,5.9-0.6,8.9-0.6
		C285.1,121.5,314.4,150.9,314.4,187.1z"/>
	<path class="st1" d="M178.2,184.6c0,1.9-0.8,3.6-2,4.9c-1.2,1.2-3,2-4.9,2h-11.8c-3.8,0-6.9-3.1-6.9-6.9c0-1.9,0.8-3.6,2-4.9
		c1.2-1.2,3-2,4.9-2h11.8C175.1,177.7,178.2,180.8,178.2,184.6z"/>
	<path class="st2" d="M183.3,186.5c0-0.4,0-0.9,0-1.3c0,0,0,0,0,0c0-0.8,0.1-1.6,0.1-2.4c0-0.6,0.1-1.3,0.2-1.9
		c0.1-0.6,0.1-1.2,0.2-1.9c0.1-0.6,0.2-1.2,0.3-1.9c0.1-0.5,0.2-1.1,0.3-1.6c0.1-0.5,0.2-1,0.3-1.6c0,0,0,0,0,0
		c0.1-0.4,0.2-0.8,0.3-1.2c0.1-0.4,0.2-0.8,0.3-1.1c0.1-0.5,0.3-1,0.4-1.5c0.2-0.8,0.4-1.5,0.7-2.3c0.3-0.9,0.6-1.8,0.9-2.6
		c0.3-0.9,0.6-1.7,1-2.5c0.2-0.5,0.4-1,0.6-1.4c0,0,0,0,0,0c0-0.1,0.1-0.2,0.1-0.3c0.4-0.8,0.8-1.6,1.2-2.5c0.2-0.5,0.5-0.9,0.7-1.4
		c0.2-0.3,0.4-0.7,0.6-1c0.2-0.3,0.4-0.7,0.6-1c0.2-0.4,0.5-0.9,0.7-1.3c0.4-0.6,0.7-1.2,1.1-1.8c0-0.1,0.1-0.1,0.1-0.2
		c0.6-0.9,1.1-1.7,1.7-2.5c0,0,0,0,0,0c0.6-0.8,1.2-1.6,1.9-2.4c0.4-0.5,0.7-0.9,1.2-1.4c0.1-0.1,0.2-0.2,0.3-0.3
		c0.3-0.4,0.6-0.7,0.9-1.1c0.1-0.1,0.1-0.1,0.1-0.2c0.5-0.6,1-1.1,1.5-1.6c4-4.2,8.6-7.9,13.7-10.8c4.9-2.9,10.2-5.2,15.9-6.8
		c2.8-0.8,5.8-1.4,8.8-1.8c2.9-0.4,5.9-0.6,8.9-0.6c35.6,0,64.6,28.4,65.5,63.9"/>
	<path class="st3" d="M259,252.7c0,0,68.9,6.2,69.1,17.4c0.1,4.6,4.6,8.4,9.2,8.7c23.7,1.2,60,3.5,56.4,6.6
		c-5.4,4.5-28.9,1.7-28.5,5.8c0.4,4.1,64.9,2.1,73.5,15.3c8.5,12.9,6.3,12-14.1,22.7c-1.1,0.6-2.2,0.9-3.4,1
		c-15.2,1.6-122.2,12.5-155.1,6.6c-3.1-0.6-5.6-2.6-7-5.4c-2.3-4.8-7.6-12.1-18.8-11.3c-15.3,1.1-80.3-0.2-90.1-0.4
		c-0.9,0-1.7-0.1-2.5-0.4c-6-1.8-29.6-10.1,2.4-21.3c0.3-0.1,0.7-0.2,1.1-0.3c1.6-0.4,6.5-1.5,12.4-2.8c10.2-2.2,10-16.8-0.3-18.8
		c-0.3-0.1-0.7-0.1-1-0.2c-0.6-0.1-1.2-0.2-1.8-0.2c-7.5,0-60.4-0.2-69.8-5c0,0-6.8-2.5,11.2-3.5c18-1,174.8,1.7,174.8,1.7
		S298,265.9,259,252.7z"/>
</g>
</svg>
