<?xml version="1.0" encoding="utf-8"?>
<!-- Generator: Adobe Illustrator 23.0.1, SVG Export Plug-In . SVG Version: 6.00 Build 0)  -->
<svg version="1.1" id="Layer_3" xmlns="http://www.w3.org/2000/svg" xmlns:xlink="http://www.w3.org/1999/xlink" x="0px" y="0px"
	 viewBox="0 0 257 534" style="enable-background:new 0 0 257 534;" xml:space="preserve">
<style type="text/css">
	.st0{fill:none;stroke:#000000;stroke-miterlimit:10;}
	.st1{fill:#47342F;stroke:#000000;stroke-miterlimit:10;}
	.st2{fill:#B24C63;stroke:#000000;stroke-miterlimit:10;}
	.st3{fill:#440602;stroke:#000000;stroke-miterlimit:10;}
	.st4{fill:#4D1F16;stroke:#000000;stroke-miterlimit:10;}
	.st5{fill:none;stroke:#FFFFFF;stroke-miterlimit:10;}
</style>
<path class="st0" d="M42.5,128.5"/>
<path class="st1" d="M42.5,128.5c0,0,5-4,8-5c2.9-1,11.5-2.9,15.6-2.1c0.1,0,0.2,0,0.4,0.1c4,1,9,0,20,2s18,4,19,3s-2-12-2-12
	s-11-4-20-4s-21-1-38,9C45.5,119.5,42.5,123.5,42.5,128.5z"/>
<path class="st2" d="M97,236l30-12l9,2l8-3l19,6c0,0-0.4,1-1.1,2.6c-2.1,4.7-6.9,14.4-12.9,17.4c-8,4-23,8-35,0s-15-10-15-10
	s57-4,60-2l2-4c0,0-20,3-23,3S97,236,97,236z"/>
<path class="st3" d="M122.5,490.5l-3-75l7-64l13-41l15-27l8-16l7-27l3-11l-1-39l-4-46l-6-36l-7-29l-10-14l-10-9l-11-7l-21-5l-12,2
	c0,0-1-32,4-33l32,6l24,10l18,17l15,21l19,43l10,45l6,39l5,55l6,58l4,39l4,33v26v37l2,74h-7l-2-5l-3,3h-7v-6l-6,3l-2,2l-9-2l-1-4
	l-7,2l-7.4-0.9l-1.4-3.5l-10.7,1.3l-10.5-2.9v-5.2l-11,3.2v-4l-9,2l-10-5h-9L122.5,490.5"/>
<path class="st0" d="M54.5,149.5c23-26,46-2,46-2s3,8-18,13s-25-2-25-2s3-6,13-10s26,4,29,7c0,0,2.9,1.4,7.4-0.6
	c1.6-0.7,3.4,0.1,3.9,1.7c1.6,4.8,3.6,15.1-1.3,29.9c-7,21,2,20,2,20s8-12,15-1"/>
<path class="st4" d="M86.5,149.5c0,0,3,8-8,10s-8-11-8-11S78.5,145.5,86.5,149.5z"/>
<line class="st0" x1="54.5" y1="154.5" x2="57.5" y2="156.5"/>
<line class="st0" x1="55" y1="151" x2="59.5" y2="154.5"/>
<line class="st0" x1="57.4" y1="148.6" x2="61.1" y2="152.9"/>
<line class="st0" x1="60.2" y1="146.8" x2="62.9" y2="151.1"/>
<line class="st0" x1="63.8" y1="144.6" x2="65.3" y2="149.3"/>
<line class="st0" x1="66.5" y1="143.7" x2="68.6" y2="148.2"/>
<line class="st0" x1="69.9" y1="142.5" x2="71.2" y2="147.4"/>
<line class="st0" x1="72.9" y1="141.5" x2="74.2" y2="146.4"/>
<line class="st0" x1="75.9" y1="141.5" x2="77.2" y2="146.4"/>
<line class="st0" x1="78.9" y1="141.5" x2="80.2" y2="146.4"/>
<line class="st0" x1="81.9" y1="142.5" x2="83.2" y2="147.4"/>
<path class="st0" d="M42.5,128.5c1.6-1.6,6-4.2,8-5c0.5-0.2,3-1,3-1c13-5,53,5,53,5l-3-13l-3-1c-25.5-8.5-47.8,1.7-54,5
	c-1.1,0.6-2.7,2.8-3,4c-3.8,14.1-14.7,46.9-16,55c-0.1,0.9,3.8,12.1,4,13c1.2,4.7,6,19.6,11,44c6,29,15.2,30.4,17,33
	c2,3,24,19,45,25s45-6,45-6c10-6,21-47,21-47c-4-7-71,0-71,0s-2-1,15,9s34,0,34,0c2,1,19-21,12-16s-65,3-65,3l31-12l10,3l7-4l29,10
	c0,0,1-48-10-123s-71-63-71-63s-8.6-20.2,7-28c16-8,58,9,75,34s30,58,30,63s14,51,15,75c0.9,21.9,16,162.2,18.6,186.4
	c0.3,2.4,0.4,4.8,0.4,7.2l2,132.4h-7l-2-5l-3,3h-7v-6l-6,3l-2,2l-9-2l-1-4l-7,2l-8-1l-1-4l-10,2l-11-3v-6l-11,4l0.1-3.7
	c0,0,63.4-334.9,3.6-407.1"/>
<path class="st0" d="M237.5,516.5c0,0-27-421-65-452s-31.6-44-79.3-42"/>
<path class="st0" d="M172.6,501.8c0,0,43.9-362.3-0.1-411.3s-19.6-59.4-83.3-58.2"/>
<path class="st0" d="M215.8,511.6c0,0-12.3-348.1-23.3-381.1"/>
<path class="st5" d="M134.5,493.2"/>
<path class="st0" d="M154.5,496.5l-9,3l-10-5h-9l-4-4c0,0-16.1-142.5,32-207"/>
</svg>
