<?xml version="1.0" encoding="utf-8"?>
<!-- Generator: Adobe Illustrator 23.0.1, SVG Export Plug-In . SVG Version: 6.00 Build 0)  -->
<svg version="1.1" id="Layer_1" xmlns="http://www.w3.org/2000/svg" xmlns:xlink="http://www.w3.org/1999/xlink" x="0px" y="0px"
	 viewBox="0 0 900 700" style="enable-background:new 0 0 900 700;" xml:space="preserve">
<style type="text/css">
	.st0{fill:#356BD8;}
	.st1{fill:#FFFFFF;}
</style>
<g>
	<rect class="st0" width="900" height="700"/>
</g>
<g>
	<path class="st1" d="M362.6,409.7c0,0,50.1-5.6,51.8-9.3c1.8-3.8,33.6-71.5,33.6-71.5l-32.5-12.2l-87-18.6l-6.3-2.9l9.1-9.5
		l53.8-6.9l13-27.6l17.6,8.2l-8.8,18.8l22.9-3l11.7-28.2l22.6,10.6l-7.1,15.1l13.1,1.5l33-70.3l2,5.5l10.5-2.7c0,0,9.4,6,10.9,12.8
		c1.4,6.8-0.9-11.1-0.9-11.1l-11.3-5.3l-7.5-3.5c0,0,13.9-13.4,21.5-9.8c7.5,3.5-6.9,47.3-6.9,47.3l-25.3,54l11.4,8.4l11.3-17.6
		l16.3,7.7l-12.2,32.5l11.5,14.6l9.5-17l18.2,10.1l-13.5,28.9l29.6,41.4l-2.1,14.3l-73.4-58.9L474,340.3l-41,71.1l27.9,48.3l-6,9.4
		l-38-33.2l-21.5,32.8l14.6-37.6l-55.4-9.2L362.6,409.7z"/>
</g>
</svg>
