<?xml version="1.0" encoding="utf-8"?>
<!-- Generator: Adobe Illustrator 23.0.1, SVG Export Plug-In . SVG Version: 6.00 Build 0)  -->
<svg version="1.1" id="Layer_1" xmlns="http://www.w3.org/2000/svg" xmlns:xlink="http://www.w3.org/1999/xlink" x="0px" y="0px"
	 viewBox="0 0 900 700" style="enable-background:new 0 0 900 700;" xml:space="preserve">
<style type="text/css">
	.st0{fill:#C49A6C;}
	.st1{fill:none;stroke:#000000;stroke-width:4;stroke-miterlimit:10;}
	.st2{fill:none;stroke:#000000;stroke-miterlimit:10;}
	.st3{fill:#020202;stroke:#000000;stroke-miterlimit:10;}
</style>
<rect class="st0" width="900" height="700"/>
<g>
	<path class="st1" d="M318.6,281.6c5.4-35.1,33.4-63.9,67.2-72"/>
	<path class="st1" d="M317.9,299.6c2.6,35.9,28.9,69.4,61.4,80.1"/>
	<path class="st1" d="M403.8,238.1c21.2,9.6,36,30.9,36,55.7c0,24.6-14.6,45.9-35.6,55.5"/>
	<path class="st1" d="M512.7,293.8c0,47.4-38.4,85.8-85.8,85.8c-4,0-7.9-0.3-11.7-0.8c-3.7-0.5-7.3-1.2-10.9-2.2
		c-9.9-2.7-19.1-7.1-27.3-13c-4.3-3.1-8.3-6.5-12-10.3c-14.8-15.4-24-36.3-24-59.3v-0.2c0-1.1,0-2.1,0.1-3.2c0,0,0,0,0,0
		c0-1.1,0.1-2.1,0.2-3.2c0.1-0.8,0.2-1.7,0.2-2.5c0.1-0.8,0.2-1.6,0.3-2.4c0.1-0.8,0.2-1.6,0.3-2.5c0.1-0.7,0.2-1.4,0.4-2.1
		c0.1-0.7,0.3-1.4,0.4-2c0,0,0,0,0-0.1c0.1-0.5,0.2-1,0.3-1.5c0.1-0.5,0.2-1,0.4-1.5c0.2-0.7,0.3-1.4,0.5-2c0.3-1,0.6-2,0.9-3
		c0.4-1.2,0.7-2.3,1.2-3.4c0.4-1.1,0.8-2.2,1.3-3.3c0.3-0.6,0.5-1.3,0.8-1.9c0,0,0,0,0,0c0.1-0.1,0.1-0.3,0.2-0.4
		c0.5-1.1,1-2.2,1.5-3.2c0.3-0.6,0.6-1.2,0.9-1.8c0.2-0.4,0.5-0.9,0.7-1.4s0.5-0.9,0.8-1.3c0.3-0.6,0.6-1.1,1-1.7
		c0.5-0.8,1-1.6,1.5-2.4c0-0.1,0.1-0.1,0.1-0.2c0.7-1.1,1.5-2.2,2.3-3.3c0,0,0,0,0,0c0.8-1.1,1.6-2.1,2.4-3.2c0.5-0.6,1-1.2,1.5-1.8
		c0.1-0.1,0.3-0.3,0.4-0.4c0.4-0.5,0.8-0.9,1.2-1.4c0.1-0.1,0.1-0.2,0.2-0.2c0.6-0.7,1.3-1.4,2-2.1c5.3-5.5,11.3-10.3,17.9-14.2
		c6.4-3.9,13.4-6.9,20.8-8.9c3.7-1,7.5-1.8,11.5-2.4c3.8-0.5,7.7-0.8,11.7-0.8C474.3,208,512.7,246.4,512.7,293.8z"/>
	<path class="st1" d="M334.5,290.6c0,2.5-1,4.7-2.7,6.4c-1.6,1.6-3.9,2.7-6.4,2.7h-15.5c-5,0-9-4-9-9c0-2.5,1-4.7,2.7-6.4
		c1.6-1.6,3.9-2.6,6.4-2.6h15.5C330.4,281.6,334.5,285.6,334.5,290.6z"/>
	<path class="st2" d="M341.1,293c0-0.6,0-1.1,0-1.7c0,0,0,0,0,0c0.1-1.1,0.1-2.1,0.2-3.2c0.1-0.8,0.1-1.7,0.2-2.5
		c0.1-0.8,0.2-1.6,0.3-2.4c0.1-0.8,0.2-1.6,0.3-2.5c0.1-0.7,0.2-1.4,0.4-2c0.1-0.7,0.3-1.4,0.4-2c0,0,0,0,0-0.1
		c0.1-0.5,0.2-1,0.3-1.5c0.1-0.5,0.2-1,0.4-1.5c0.2-0.7,0.3-1.4,0.5-2c0.3-1,0.6-2,0.9-3c0.4-1.2,0.7-2.3,1.2-3.4
		c0.4-1.1,0.8-2.2,1.3-3.3c0.3-0.6,0.5-1.3,0.8-1.9c0,0,0,0,0,0c0.1-0.1,0.1-0.3,0.2-0.4c0.5-1.1,1-2.2,1.5-3.2
		c0.3-0.6,0.6-1.2,0.9-1.8c0.2-0.4,0.5-0.9,0.7-1.4c0.3-0.4,0.5-0.9,0.8-1.3c0.3-0.6,0.6-1.1,1-1.7c0.5-0.8,1-1.6,1.5-2.4
		c0-0.1,0.1-0.2,0.1-0.2c0.7-1.1,1.5-2.2,2.3-3.3c0,0,0,0,0,0c0.8-1.1,1.6-2.1,2.4-3.2c0.5-0.6,1-1.2,1.5-1.8
		c0.1-0.2,0.3-0.3,0.4-0.4c0.4-0.5,0.8-1,1.2-1.4c0.1-0.1,0.1-0.2,0.2-0.2c0.6-0.7,1.3-1.4,2-2.1c5.3-5.5,11.3-10.3,17.9-14.2
		c6.4-3.9,13.4-6.9,20.8-8.9c3.7-1,7.5-1.8,11.5-2.3c3.8-0.5,7.7-0.8,11.7-0.8c46.7,0,84.6,37.2,85.8,83.6"/>
	<path class="st3" d="M440.2,379.7c0,0,90.2,8.1,90.5,22.8c0.1,6,6.1,11,12,11.3c31,1.5,78.6,4.6,73.8,8.6c-7,5.9-37.9,2.2-37.3,7.6
		c0.5,5.4,84.9,2.7,96.3,20c11.1,16.9,8.3,15.8-18.4,29.7c-1.4,0.7-2.9,1.2-4.5,1.4c-19.9,2.1-160,16.4-203,8.6
		c-4-0.7-7.4-3.4-9.1-7.1c-3-6.3-9.9-15.9-24.6-14.8c-20,1.5-105.2-0.2-117.9-0.5c-1.1,0-2.2-0.2-3.3-0.5
		c-7.9-2.4-38.7-13.3,3.2-27.9c0.4-0.2,0.9-0.3,1.4-0.4c2.1-0.5,8.6-2,16.2-3.6c13.4-2.9,13.1-22-0.3-24.7c-0.4-0.1-0.9-0.2-1.3-0.3
		c-0.8-0.1-1.6-0.2-2.4-0.2c-9.9,0-79-0.2-91.3-6.5c0,0-8.9-3.2,14.6-4.6c23.5-1.4,228.8,2.2,228.8,2.2S491.3,397,440.2,379.7z"/>
</g>
</svg>
