<?xml version="1.0" encoding="utf-8"?>
<!-- Generator: Adobe Illustrator 23.0.1, SVG Export Plug-In . SVG Version: 6.00 Build 0)  -->
<svg version="1.1" id="Layer_1" xmlns="http://www.w3.org/2000/svg" xmlns:xlink="http://www.w3.org/1999/xlink" x="0px" y="0px"
	 viewBox="0 0 670.1 445.4" style="enable-background:new 0 0 670.1 445.4;" xml:space="preserve">
<style type="text/css">
	.st0{fill:#57392F;}
	.st1{fill:#C6AB80;}
	.st2{fill:#A47A5C;}
	.st3{fill:#B38D71;}
	.st4{font-family:'inglobal';}
	.st5{font-size:31.3863px;}
</style>
<rect class="st0" width="670.1" height="445.4"/>
<g>
	<g>
		<path class="st1" d="M346.4,232.1c-3.4,11.8-10.6,22.5-20,30.3c-2-0.6-3.9-1.4-5.8-2.5l-56.8-33.4c-8.1-4.7-13.1-13.5-13.1-23.1
			v-66.7c0-9.5,5-18.3,13.1-23.1l56.8-33.4c0.6-0.4,1.3-0.7,2-1c9.9,8.9,15.1,22.7,16.1,36.2c1.1,14.8-2.1,29.5-5.8,43.8
			c-0.9,3.6-1.9,7.3-0.7,10.8c0.7,2.4,2.5,4.4,4,6.5C348,192.2,351.9,213.4,346.4,232.1z"/>
	</g>
	<g>
		<path class="st1" d="M419.3,136.9v66.7c0,9.5-5,18.3-13.1,23.1L349.4,260c-5.2,3.1-11.2,4.1-16.9,3.2c10.8-8.2,19.1-20,22.7-33.2
			c5.1-18.8,0.9-39.9-11-55.2c-1.6-2-3.3-4-4.1-6.4c-1.2-3.5-0.2-7.2,0.6-10.8c3.5-14.4,6.5-29.2,5.1-43.9
			c-1.2-13.5-6.6-27.1-16.5-35.8c6.7-1.9,14-1,20.1,2.6l56.8,33.4C414.3,118.6,419.3,127.4,419.3,136.9z"/>
	</g>
</g>
<g>
	<g>
		<g>
			<path class="st2" d="M235.5,327.4c-3,1.9-7.1,2.8-12.3,2.8l-13.6,0.1c-1.9,0-2.8-1-2.8-3.1l-0.1-44.6c0-2.1,0.9-3.1,2.8-3.1
				l14.4-0.1c4.1,0,7.4,0.8,10,2.5c2.8,1.7,4.2,4.5,4.4,8.2v0.4c0,2.5-0.7,4.8-2.2,7c-1.6,2.3-3.9,4.1-6.8,5.2
				c3.7,1.1,6.7,2.8,8.7,5.1c2.2,2.4,3.2,5.2,3.3,8.5C241.2,321.3,239.2,325,235.5,327.4z M212.2,300.9h9.7c2.7,0,5-0.9,6.9-2.6
				c2.1-1.8,3.1-4.3,3.1-7.4c0-2.7-0.9-4.7-2.7-5.9c-1.8-1.2-4.7-1.8-8.7-1.8c-3.7,0-6,0.2-6.7,0.7c-1.1,0.7-1.6,2.5-1.6,5.4
				L212.2,300.9z M234.9,316.7c0-3.6-1.4-6.5-4.2-8.7c-2.3-1.9-6.4-2.9-12.2-2.8h-6.4l0.1,15.4c0,2.9,0.6,4.6,1.7,5.2
				c0.9,0.5,3.2,0.7,7,0.7c4.4,0,7.9-0.9,10.3-2.6C233.8,322.1,234.9,319.7,234.9,316.7z"/>
		</g>
		<g>
			<path class="st2" d="M273.3,321c0.5-0.2,0.9-0.4,1.2-0.4c0.7,0,1.2,0.4,1.6,1.1c0.1,0.2,0.1,0.3,0.1,0.5c0,1.2-1.5,2.8-4.5,4.9
				c-3.1,2.2-6.7,3.2-10.7,3.2c-4.9,0-8.8-1.5-11.8-4.6c-3-3.1-4.5-7.1-4.6-12.2c0-5.8,1.8-10.7,5.4-14.5c3.6-3.8,8.2-5.7,13.7-5.7
				c3.5,0,6.3,0.9,8.5,2.6c2.2,1.7,3.2,4,3.3,6.8c0,2-0.3,3.6-1,4.7c-1.1,2.3-3.3,4.2-6.5,5.7c-4.7,1.9-10.4,2.9-17.3,3
				c0.3,3,1.6,5.4,4,7.1c2.1,1.6,4.7,2.4,7.7,2.4c1.7,0,3.7-0.5,6-1.6C270.3,323,272,322,273.3,321z M263.9,310.2
				c3.7-1.7,5.5-4.2,5.5-7.5c0-1.7-0.6-3.2-1.8-4.3c-1.2-1.1-2.9-1.6-4.9-1.6c-3.9,0-7,1.9-9.4,5.7c-1.9,3.1-2.7,6.4-2.7,10
				C256.1,312.6,260.6,311.8,263.9,310.2z"/>
		</g>
		<g>
			<path class="st2" d="M305.5,297.9c2.6,2.8,3.8,7.4,3.8,13.6l0.1,14.7c0,1.8-0.9,2.7-2.6,2.7l-0.6-0.1c-1.5-0.2-2.3-1.2-2.3-2.8
				v-2.5c-1.7,2.1-3.4,3.6-5.1,4.5c-2.2,1.2-4.7,1.9-7.6,1.9c-3.2,0-5.9-0.9-8.1-2.9c-2.2-2-3.2-4.4-3.2-7.4c0-4.6,1.7-8,5.1-10.2
				c3.8-2.6,9.8-3.9,18.1-3.9c-0.4-2.5-1.4-4.5-3.2-6c-1.7-1.5-3.9-2.2-6.5-2.2c-1,0-1.9,0.1-2.6,0.4c-0.7,0.2-1.8,0.8-3.2,1.6
				c-1.2,0.7-2,1.1-2.4,1.3c-0.4,0.2-0.9,0.2-1.4,0.2c-0.6,0-1-0.1-1.2-0.2c-0.5-0.3-0.7-0.9-0.7-1.7c0-1.6,1-2.9,3.1-3.9
				c2.1-0.9,4.8-1.4,8.2-1.4C298.8,293.7,303,295.1,305.5,297.9z M300,323.7c2.6-2.1,3.9-5.3,3.9-9.7l-0.1-4.2
				c-1.4-0.1-2.7-0.2-3.9-0.2c-4.3,0-7.6,0.8-9.9,2.4c-2.6,1.7-3.8,4.2-3.8,7.3c0,1.9,0.7,3.6,1.9,4.8c1.3,1.2,2.9,1.8,5,1.8
				C295.9,325.8,298.2,325.1,300,323.7z"/>
		</g>
		<g>
			<path class="st2" d="M341.1,297.7c2,2.7,3,6.7,3,12V327c0,1.9-0.9,2.9-2.7,2.9s-2.7-0.9-2.7-2.9l-0.1-17.3c0-4.2-0.7-7.2-2.1-9
				c-1.2-1.7-3.1-2.5-5.6-2.5c-2.2,0-4.1,0.6-5.6,1.6c-2.2,1.5-3.3,3.8-3.4,7l0.1,20.3c0,1.9-0.9,2.9-2.7,2.9
				c-1.9,0-2.7-0.9-2.7-2.9l-0.1-30.6c0-1.9,0.9-2.9,2.7-2.9c1.9,0,2.7,0.9,2.7,2.9v2.4c3.2-3.4,6.7-5.2,10.5-5.2
				C336.2,293.7,339.1,295,341.1,297.7z"/>
		</g>
	</g>
	<g>
		<path class="st1" d="M387.4,327.8c-3,1.9-7.1,2.8-12.3,2.8l-13.6,0.1c-1.9,0-2.8-1-2.8-3.1l-0.1-44.6c0-2.1,0.9-3.1,2.8-3.1
			l14.4-0.1c4.1,0,7.4,0.8,10,2.5c2.8,1.7,4.2,4.5,4.4,8.2v0.4c0,2.5-0.7,4.8-2.2,7c-1.6,2.3-3.9,4.1-6.8,5.2
			c3.7,1.1,6.7,2.8,8.7,5.1c2.2,2.4,3.2,5.2,3.3,8.5C393.1,321.8,391.2,325.4,387.4,327.8z M364.2,301.4h9.7c2.7,0,5-0.9,6.9-2.6
			c2.1-1.8,3.1-4.3,3.1-7.4c0-2.7-0.9-4.7-2.7-5.9c-1.8-1.2-4.7-1.8-8.7-1.8c-3.7,0-6,0.2-6.7,0.7c-1.1,0.7-1.6,2.5-1.6,5.4
			L364.2,301.4z M386.9,317c0-3.6-1.4-6.5-4.2-8.7c-2.3-1.9-6.4-2.9-12.2-2.8h-6.4l0.1,15.4c0,2.9,0.6,4.6,1.7,5.2
			c0.9,0.5,3.2,0.7,7,0.7c4.4,0,7.9-0.9,10.3-2.6C385.7,322.6,386.9,320.1,386.9,317z"/>
		<path class="st1" d="M426.8,299.1c3.3,3.5,5,7.9,5,13.4c0,5.4-1.6,9.7-4.9,13.2c-3.3,3.4-7.5,5.2-12.6,5.2
			c-5.2,0-9.4-1.7-12.7-5.1c-3.3-3.4-4.9-7.9-4.9-13.3c0-5.4,1.6-9.9,4.9-13.3c3.2-3.4,7.4-5.2,12.6-5.2
			C419.3,293.9,423.6,295.6,426.8,299.1z M422.6,322.9c2.1-2.7,3.2-6.2,3.2-10.5c0-4.2-1.1-7.7-3.2-10.5c-2.1-2.7-4.9-4.1-8.3-4
			c-3.4,0-6.1,1.4-8.2,4.1c-2.1,2.7-3.2,6.2-3.2,10.5c0,4.2,1.1,7.7,3.2,10.4c2.1,2.7,4.8,4.1,8,4.1
			C417.6,326.9,420.4,325.6,422.6,322.9z"/>
		<path class="st1" d="M462.7,325.6c0.5,0.7,0.7,1.4,0.7,2c0,0.7-0.4,1.5-1.2,2.1c-0.6,0.5-1.1,0.7-1.7,0.7c-0.7,0-1.4-0.5-2.1-1.4
			l-10-14.1c-2.5,3-4.2,5.1-4.9,6.4c-1.4,2.2-2.1,4.6-2.3,6.9c-0.1,1.4-0.8,2.1-2.1,2.1c-1.4,0-2.1-0.7-2.1-2.2
			c0-1.7,0.8-3.9,2.4-6.5c0.7-1.2,1.5-2.3,2.4-3.5c1.1-1.6,2.7-3.6,4.6-6l-9.2-13c-0.5-0.7-0.7-1.4-0.7-2c0-0.7,0.4-1.5,1.2-2.1
			c0.6-0.5,1.1-0.7,1.7-0.7c0.7,0,1.5,0.4,2.1,1.4l9,12.8c2.1-2.4,3.5-4.1,4.2-5.2c1.4-2.2,2.2-4.5,2.4-6.8c0.1-1.4,0.8-2.1,2.1-2.1
			h0.1c1.4,0.1,2.1,0.7,2.1,2.2v0.1c0,1.7-0.9,3.9-2.6,6.5c-0.7,1.1-1.6,2.3-2.4,3.4c-0.9,1.2-2.2,2.9-3.8,4.7L462.7,325.6z"/>
	</g>
</g>
<text transform="matrix(0.9837 0 0 1 254.4238 368.4207)" class="st3 st4 st5">Coffee Shop</text>
</svg>
