<?xml version="1.0" encoding="utf-8"?>
<!-- Generator: Adobe Illustrator 23.0.1, SVG Export Plug-In . SVG Version: 6.00 Build 0)  -->
<svg version="1.1" id="Layer_1" xmlns="http://www.w3.org/2000/svg" xmlns:xlink="http://www.w3.org/1999/xlink" x="0px" y="0px"
	 viewBox="0 0 541.8 288" style="enable-background:new 0 0 541.8 288;" xml:space="preserve">
<style type="text/css">
	.st0{fill:#634E4E;}
	.st1{fill:#C5AA80;}
	.st2{fill:#A27A5B;}
	.st3{fill:#B38C71;}
	.st4{font-family:'inglobal';}
	.st5{font-size:16.2922px;}
	.st6{fill:#140700;}
	.st7{fill:#FFFFFF;}
	.st8{font-family:'Helvetica';}
	.st9{font-size:9px;}
</style>
<rect class="st0" width="541.8" height="288"/>
<g>
	<g>
		<g>
			<path class="st1" d="M263.3,169.8c-1.8,6.1-5.5,11.7-10.4,15.7c-1-0.3-2-0.7-3-1.3L220.5,167c-4.2-2.5-6.8-7-6.8-12v-34.6
				c0-4.9,2.6-9.5,6.8-12L250,91.1c0.3-0.2,0.7-0.4,1-0.5c5.1,4.6,7.8,11.8,8.4,18.8c0.6,7.7-1.1,15.3-3,22.8
				c-0.5,1.8-1,3.8-0.4,5.6c0.4,1.3,1.3,2.3,2.1,3.4C264.1,149.1,266.1,160.1,263.3,169.8z"/>
		</g>
		<g>
			<path class="st1" d="M301.2,120.4V155c0,4.9-2.6,9.5-6.8,12l-29.5,17.3c-2.7,1.6-5.8,2.1-8.8,1.7c5.6-4.2,9.9-10.4,11.8-17.3
				c2.7-9.7,0.5-20.7-5.7-28.6c-0.8-1-1.7-2.1-2.1-3.3c-0.6-1.8-0.1-3.8,0.3-5.6c1.8-7.5,3.4-15.1,2.7-22.8c-0.6-7-3.4-14-8.6-18.6
				c3.5-1,7.3-0.5,10.4,1.3l29.5,17.3C298.5,110.9,301.2,115.5,301.2,120.4z"/>
		</g>
	</g>
	<g>
		<g>
			<g>
				<path class="st2" d="M205.8,219.3c-1.6,1-3.7,1.5-6.4,1.5l-7.1,0c-1,0-1.5-0.5-1.5-1.6l-0.1-23.2c0-1.1,0.5-1.6,1.5-1.6l7.5,0
					c2.1,0,3.9,0.4,5.2,1.3c1.5,0.9,2.2,2.3,2.3,4.3v0.2c0,1.3-0.4,2.5-1.2,3.6c-0.8,1.2-2,2.1-3.5,2.7c1.9,0.6,3.5,1.5,4.5,2.7
					c1.1,1.3,1.7,2.7,1.7,4.4C208.7,216.2,207.7,218.1,205.8,219.3z M193.7,205.6h5c1.4,0,2.6-0.5,3.6-1.3c1.1-0.9,1.6-2.2,1.6-3.9
					c0-1.4-0.5-2.4-1.4-3.1c-0.9-0.6-2.5-0.9-4.5-0.9c-1.9,0-3.1,0.1-3.5,0.4c-0.6,0.4-0.8,1.3-0.8,2.8L193.7,205.6z M205.5,213.7
					c0-1.8-0.7-3.4-2.2-4.5c-1.2-1-3.3-1.5-6.3-1.5h-3.3l0,8c0,1.5,0.3,2.4,0.9,2.7c0.5,0.3,1.7,0.4,3.6,0.4c2.3,0,4.1-0.5,5.3-1.3
					C204.8,216.6,205.5,215.3,205.5,213.7z"/>
			</g>
			<g>
				<path class="st2" d="M225.4,216c0.3-0.1,0.5-0.2,0.6-0.2c0.4,0,0.6,0.2,0.8,0.6c0,0.1,0.1,0.2,0.1,0.3c0,0.6-0.8,1.5-2.3,2.6
					c-1.6,1.1-3.5,1.7-5.6,1.7c-2.5,0-4.6-0.8-6.1-2.4c-1.6-1.6-2.3-3.7-2.4-6.3c0-3,0.9-5.5,2.8-7.5c1.9-2,4.2-3,7.1-3
					c1.8,0,3.3,0.5,4.4,1.3c1.1,0.9,1.7,2.1,1.7,3.5c0,1-0.2,1.9-0.5,2.5c-0.6,1.2-1.7,2.2-3.4,3c-2.4,1-5.4,1.5-9,1.6
					c0.2,1.6,0.8,2.8,2.1,3.7c1.1,0.8,2.4,1.2,4,1.2c0.9,0,1.9-0.3,3.1-0.8C223.8,217,224.7,216.5,225.4,216z M220.5,210.4
					c1.9-0.9,2.9-2.2,2.9-3.9c0-0.9-0.3-1.7-0.9-2.2c-0.6-0.6-1.5-0.8-2.6-0.8c-2,0-3.7,1-4.9,3c-1,1.6-1.4,3.3-1.4,5.2
					C216.5,211.6,218.8,211.2,220.5,210.4z"/>
			</g>
			<g>
				<path class="st2" d="M242.1,204c1.3,1.5,2,3.8,2,7.1l0,7.6c0,0.9-0.5,1.4-1.3,1.4l-0.3,0c-0.8-0.1-1.2-0.6-1.2-1.5v-1.3
					c-0.9,1.1-1.8,1.8-2.7,2.3c-1.2,0.6-2.5,1-3.9,1c-1.7,0-3.1-0.5-4.2-1.5c-1.1-1-1.7-2.3-1.7-3.8c0-2.4,0.9-4.1,2.6-5.3
					c2-1.3,5.1-2,9.4-2c-0.2-1.3-0.7-2.3-1.7-3.1c-0.9-0.8-2-1.2-3.4-1.1c-0.5,0-1,0.1-1.3,0.2c-0.4,0.1-0.9,0.4-1.7,0.8
					c-0.6,0.4-1,0.6-1.3,0.7c-0.2,0.1-0.5,0.1-0.7,0.1c-0.3,0-0.5,0-0.6-0.1c-0.3-0.2-0.4-0.5-0.4-0.9c0-0.8,0.5-1.5,1.6-2
					c1.1-0.5,2.5-0.7,4.3-0.7C238.6,201.8,240.8,202.6,242.1,204z M239.2,217.4c1.4-1.1,2-2.8,2-5l-0.1-2.2c-0.7-0.1-1.4-0.1-2-0.1
					c-2.2,0-3.9,0.4-5.1,1.2c-1.3,0.9-2,2.2-2,3.8c0,1,0.4,1.8,1,2.5c0.7,0.6,1.5,0.9,2.6,0.9C237.1,218.5,238.3,218.1,239.2,217.4z
					"/>
			</g>
			<g>
				<path class="st2" d="M260.5,203.9c1,1.4,1.6,3.5,1.6,6.2v9c0,1-0.5,1.5-1.4,1.5s-1.4-0.5-1.4-1.5l0-9c0-2.2-0.4-3.7-1.1-4.7
					c-0.6-0.9-1.6-1.3-2.9-1.3c-1.1,0-2.1,0.3-2.9,0.8c-1.1,0.8-1.7,2-1.7,3.6l0,10.6c0,1-0.5,1.5-1.4,1.5c-1,0-1.4-0.5-1.4-1.5
					l0-15.9c0-1,0.5-1.5,1.4-1.5c1,0,1.4,0.5,1.4,1.5v1.2c1.7-1.8,3.5-2.7,5.4-2.7C258,201.8,259.5,202.5,260.5,203.9z"/>
			</g>
		</g>
		<g>
			<path class="st1" d="M284.6,219.5c-1.6,1-3.7,1.5-6.4,1.5l-7.1,0c-1,0-1.5-0.5-1.5-1.6l-0.1-23.2c0-1.1,0.5-1.6,1.5-1.6l7.5,0
				c2.1,0,3.9,0.4,5.2,1.3c1.5,0.9,2.2,2.3,2.3,4.3v0.2c0,1.3-0.4,2.5-1.2,3.6c-0.8,1.2-2,2.1-3.5,2.7c1.9,0.6,3.5,1.5,4.5,2.7
				c1.1,1.3,1.7,2.7,1.7,4.4C287.6,216.4,286.6,218.3,284.6,219.5z M272.6,205.8h5c1.4,0,2.6-0.5,3.6-1.3c1.1-0.9,1.6-2.2,1.6-3.9
				c0-1.4-0.5-2.4-1.4-3.1c-0.9-0.6-2.5-0.9-4.5-0.9c-1.9,0-3.1,0.1-3.5,0.4c-0.6,0.4-0.8,1.3-0.8,2.8L272.6,205.8z M284.3,213.9
				c0-1.8-0.7-3.4-2.2-4.5c-1.2-1-3.3-1.5-6.3-1.5h-3.3l0,8c0,1.5,0.3,2.4,0.9,2.7c0.5,0.3,1.7,0.4,3.6,0.4c2.3,0,4.1-0.5,5.3-1.3
				C283.7,216.8,284.3,215.5,284.3,213.9z"/>
			<path class="st1" d="M305.1,204.6c1.7,1.8,2.6,4.1,2.6,7c0,2.8-0.8,5-2.6,6.9c-1.7,1.8-3.9,2.7-6.5,2.7c-2.7,0-4.9-0.9-6.6-2.7
				c-1.7-1.8-2.6-4.1-2.6-6.9c0-2.8,0.8-5.1,2.5-6.9c1.7-1.8,3.9-2.7,6.5-2.7C301.2,201.9,303.4,202.8,305.1,204.6z M302.9,217
				c1.1-1.4,1.7-3.2,1.7-5.5c0-2.2-0.6-4-1.7-5.4c-1.1-1.4-2.5-2.1-4.3-2.1c-1.7,0-3.2,0.7-4.3,2.1c-1.1,1.4-1.7,3.2-1.7,5.4
				c0,2.2,0.6,4,1.7,5.4c1.1,1.4,2.5,2.1,4.2,2.1C300.3,219.1,301.7,218.4,302.9,217z"/>
			<path class="st1" d="M323.7,218.4c0.3,0.4,0.4,0.7,0.4,1c0,0.4-0.2,0.8-0.6,1.1c-0.3,0.3-0.6,0.4-0.9,0.4c-0.4,0-0.7-0.3-1.1-0.7
				l-5.2-7.3c-1.3,1.6-2.2,2.7-2.6,3.3c-0.7,1.2-1.1,2.4-1.2,3.6c0,0.7-0.4,1.1-1.1,1.1c-0.7,0-1.1-0.4-1.1-1.2c0-0.9,0.4-2,1.3-3.4
				c0.4-0.6,0.8-1.2,1.2-1.8c0.6-0.8,1.4-1.8,2.4-3.1l-4.8-6.8c-0.3-0.4-0.4-0.7-0.4-1c0-0.4,0.2-0.8,0.6-1.1
				c0.3-0.3,0.6-0.4,0.9-0.4c0.4,0,0.8,0.2,1.1,0.7l4.7,6.7c1.1-1.2,1.8-2.1,2.2-2.7c0.7-1.1,1.2-2.3,1.3-3.5
				c0.1-0.7,0.4-1.1,1.1-1.1h0c0.7,0,1.1,0.4,1.1,1.1v0.1c0,0.9-0.5,2-1.3,3.4c-0.4,0.6-0.8,1.2-1.3,1.8c-0.5,0.6-1.1,1.5-2,2.5
				L323.7,218.4z"/>
		</g>
	</g>
	<text transform="matrix(0.9837 0 0 1 215.5762 240.5977)" class="st3 st4 st5">Coffee Shop</text>
	<g>
		<g>
			<g>
				<path class="st6" d="M317.1,118.6c-5.2,0.4-10.4,0.8-15.5,1.3c-0.8,0.1-0.8,1.3,0,1.3c5.2-0.5,10.4-0.8,15.5-1.3
					C317.9,119.8,317.9,118.6,317.1,118.6L317.1,118.6z"/>
			</g>
		</g>
		<g>
			<g>
				<path class="st6" d="M304.3,122c-0.4-0.3-0.8-0.6-1.3-0.9c-0.2-0.1-0.5-0.2-0.6-0.4c-0.2-0.3-0.1-0.5,0.1-0.8
					c0.5-0.6,1.1-1,1.5-1.6c0.4-0.7-0.7-1.3-1.1-0.6c-0.6,0.9-2.1,1.6-2.1,2.8c0,0.5,0.3,0.8,0.7,1.1c0.7,0.5,1.4,0.9,2.1,1.4
					C304.4,123.5,305,122.4,304.3,122L304.3,122z"/>
			</g>
		</g>
	</g>
	<text transform="matrix(1 0 0 1 325.6146 114.9616)"><tspan x="0" y="0" class="st7 st8 st9">Shape of a cube /</tspan><tspan x="0" y="10.8" class="st7 st8 st9">angular shape represents</tspan></text>
	<g>
		<g>
			<g>
				<path class="st6" d="M248.3,72.5c2.2,5.7,2.2,12.2,4.4,17.9c0.3,0.7,1.5,0.4,1.2-0.3c-2.2-5.7-2.3-12.1-4.4-17.9
					C249.3,71.4,248,71.7,248.3,72.5L248.3,72.5z"/>
			</g>
		</g>
		<g>
			<g>
				<path class="st6" d="M253.9,87c-0.1,0.5-0.3,1-0.4,1.4c-0.1,0.2-0.1,0.5-0.2,0.7c-0.1,0.3-0.1,0.4-0.4,0.3
					c-0.4-0.1-0.8-0.4-1.1-0.6c-0.4-0.2-0.8-0.4-1.2-0.5c-0.8-0.2-1.1,1-0.3,1.2c1.1,0.2,2.2,1.5,3.4,1.1c0.5-0.2,0.7-0.6,0.9-1.1
					c0.2-0.8,0.4-1.5,0.6-2.3C255.3,86.6,254.1,86.2,253.9,87L253.9,87z"/>
			</g>
		</g>
	</g>
	<text transform="matrix(1 0 0 1 226.9195 51.6226)"><tspan x="0" y="0" class="st7 st8 st9">The line between the 2 seeds of a </tspan><tspan x="0" y="10.8" class="st7 st8 st9">coffee bean + curve of the letter B</tspan></text>
	<g>
		<g>
			<g>
				<path class="st6" d="M194.8,96c1.6,3.1,5.8,5.6,8.4,7.7c2.9,2.3,7.7,5.1,9.4,8.4c0.4,0.7,1.5,0.1,1.1-0.6
					c-1.6-3.1-5.8-5.5-8.4-7.7c-2.8-2.3-7.7-5.1-9.4-8.4C195.5,94.6,194.4,95.3,194.8,96L194.8,96z"/>
			</g>
		</g>
		<g>
			<g>
				<path class="st6" d="M213.6,108.6c-0.1,0.4-0.2,0.8-0.3,1.1c-0.1,0.2-0.2,1-0.3,1.1c-0.3,0.3-0.9,0.1-1.3,0.1c-1,0-2,0.3-3,0.2
					c-0.8-0.1-0.8,1.2,0,1.3c0.7,0.1,1.4,0,2-0.1c0.7-0.1,1.3,0,2,0.1c1.7,0.2,1.8-2.3,2.1-3.4C215.1,108.2,213.9,107.9,213.6,108.6
					L213.6,108.6z"/>
			</g>
		</g>
	</g>
	<text transform="matrix(1 0 0 1 99.7409 65.9205)"><tspan x="0" y="0" class="st7 st8 st9">Rounded edges gives a </tspan><tspan x="0" y="10.8" class="st7 st8 st9">positive image, represents </tspan><tspan x="0" y="21.6" class="st7 st8 st9">friendship, warmth, reliability</tspan><tspan x="0" y="32.4" class="st7 st8 st9">and confortableness</tspan></text>
	<g>
		<g>
			<g>
				<path class="st6" d="M166.5,184.6c6.3,4,13.3,6.9,19.7,10.8c0.7,0.4,1.3-0.7,0.6-1.1c-6.4-3.9-13.4-6.8-19.7-10.8
					C166.4,183.1,165.8,184.1,166.5,184.6L166.5,184.6z"/>
			</g>
		</g>
		<g>
			<g>
				<path class="st6" d="M185.1,191.9c0.2,0.5,0.3,0.9,0.5,1.4c0.1,0.2,0.2,0.5,0.2,0.7c0.1,0.3,0.2,0.3-0.1,0.5
					c-0.3,0.2-0.9,0.1-1.3,0.2c-0.4,0-0.9,0.1-1.3,0.3c-0.7,0.3-0.4,1.5,0.3,1.2c1-0.4,2.6,0,3.4-1c0.4-0.4,0.3-0.9,0.2-1.4
					c-0.2-0.8-0.5-1.5-0.8-2.2C186.1,190.9,184.9,191.2,185.1,191.9L185.1,191.9z"/>
			</g>
		</g>
	</g>
	<text transform="matrix(1 0 0 1 101.6207 166.4977)"><tspan x="0" y="0" class="st7 st8 st9">Rounded typeface </tspan><tspan x="0" y="10.8" class="st7 st8 st9">gives a youthful </tspan><tspan x="0" y="21.6" class="st7 st8 st9">appeal</tspan></text>
	<g>
		<g>
			<path class="st6" d="M260.6,198.6c3.4-13.3,20-15.3,31.5-17c10.7-1.6,22.6-3.2,33.3-0.9c0.8,0.2,1.1-1,0.3-1.2
				c-11.8-2.5-24.9-0.6-36.6,1.3c-11.4,1.9-26.4,4.5-29.7,17.5C259.2,199,260.4,199.4,260.6,198.6L260.6,198.6z"/>
		</g>
	</g>
	<g>
		<g>
			<path class="st6" d="M291.4,172.9c9.4,8.5,22.7,4.5,34,7.8c0.8,0.2,1.1-1,0.3-1.2c-11.1-3.2-24.4,0.8-33.5-7.4
				C291.7,171.4,290.8,172.3,291.4,172.9L291.4,172.9z"/>
		</g>
	</g>
	<g>
		<g>
			<path class="st6" d="M320.9,172c0.9,1.4,1.8,2.7,2.7,4.1c0.6,1,2.9,3.5,2.5,4.5c-0.3,0.8-1.8,0.8-2.5,1.2c-1.1,0.5-2,1.1-2.8,1.9
				c-0.6,0.5,0.3,1.4,0.9,0.9c1.6-1.4,3.4-1.5,5.1-2.5c0.5-0.3,0.9-0.7,1-1.3c0.1-1.2-1.4-2.6-2-3.6c-1.2-1.9-2.5-3.8-3.7-5.7
				C321.5,170.7,320.4,171.3,320.9,172L320.9,172z"/>
		</g>
	</g>
	<text transform="matrix(1 0 0 1 338.1641 162.4126)"><tspan x="0" y="0" class="st7 st8 st9">Shades of brown that</tspan><tspan x="0" y="10.8" class="st7 st8 st9">represent the colors of</tspan><tspan x="0" y="21.6" class="st7 st8 st9">coffee drinks + brown</tspan><tspan x="0" y="32.4" class="st7 st8 st9">represent seriousness,</tspan><tspan x="0" y="43.2" class="st7 st8 st9">comfort and responsibility.</tspan></text>
</g>
</svg>
