<?xml version="1.0" encoding="utf-8"?>
<!-- Generator: Adobe Illustrator 23.0.1, SVG Export Plug-In . SVG Version: 6.00 Build 0)  -->
<svg version="1.1" id="Layer_1" xmlns="http://www.w3.org/2000/svg" xmlns:xlink="http://www.w3.org/1999/xlink" x="0px" y="0px"
	 viewBox="0 0 715 641" style="enable-background:new 0 0 715 641;" xml:space="preserve">
<style type="text/css">
	.st0{fill:#3952A4;}
	.st1{fill:#F7F7F7;stroke:#000000;stroke-width:4;stroke-miterlimit:10;}
	.st2{fill:#FFFFFF;stroke:#000000;stroke-width:3;stroke-miterlimit:10;}
	.st3{fill:#A3A1A1;}
	.st4{fill:#6ABAE8;}
	.st5{fill:none;stroke:#000000;stroke-miterlimit:10;}
	.st6{fill:#FDFEFE;stroke:#000000;stroke-miterlimit:10;}
	.st7{fill:#F9F9FA;stroke:#050606;stroke-miterlimit:10;}
	.st8{fill:#020202;stroke:#020202;stroke-miterlimit:10;}
	.st9{fill:#FFFFFF;stroke:#000000;stroke-miterlimit:10;}
</style>
<rect class="st0" width="715" height="641"/>
<path class="st1" d="M141.45,175.02c0,0,89.88-15.47,184.18-5.16c0,0,23.58-12.25,190.81-3.55l19.15,118.47l7.37,41.99
	c0,0-204.81-2.21-229.86,5.89c0,0-100.19-17.68-207.02,0L141.45,175.02z"/>
<path class="st2" d="M324.6,183.4c0.32-0.74,0,78.09,0,78.09"/>
<path class="st3" d="M157.94,222.55c15.05-1.49,56.21-4.79,107.11-2.64c3.82,0.16,6.81,2.29,6.81,4.87v0.93
	c0,2.72-3.28,4.91-7.31,4.87c-20.16-0.18-76.91-0.47-104.66,1.73c-4.32,0.34-8.12-1.91-8.12-4.84v-0.11
	C151.78,224.96,154.39,222.9,157.94,222.55z"/>
<path class="st3" d="M167.51,186.84c5.86-2.83,21.87-9.13,41.66-5.03c1.49,0.31,2.65,4.35,2.65,9.27v1.78
	c0,5.18-1.28,9.35-2.84,9.28c-7.84-0.35-29.91-0.89-40.71,3.3c-1.68,0.65-3.16-3.63-3.16-9.21v-0.21
	C165.11,191.41,166.13,187.5,167.51,186.84z"/>
<path class="st3" d="M151.82,270.12c18.87-1.49,70.47-4.79,134.28-2.64c4.79,0.16,8.54,2.29,8.54,4.87v0.93
	c0,2.72-4.11,4.91-9.16,4.87c-25.28-0.18-96.41-0.47-131.2,1.73c-5.41,0.34-10.18-1.91-10.18-4.84v-0.11
	C144.1,272.53,147.38,270.47,151.82,270.12z"/>
<path class="st3" d="M154.07,244.71c15.05-1.49,56.21-4.79,107.11-2.64c3.82,0.16,6.81,2.29,6.81,4.87v0.93
	c0,2.72-3.28,4.91-7.31,4.87c-20.16-0.18-76.91-0.47-104.66,1.73c-4.32,0.34-8.12-1.91-8.12-4.84v-0.11
	C147.91,247.11,150.53,245.06,154.07,244.71z"/>
<path class="st3" d="M358.78,189.76c17.6-1.49,65.73-4.79,125.23-2.64c4.47,0.16,7.97,2.29,7.97,4.87v0.93
	c0,2.72-3.83,4.91-8.55,4.87c-23.57-0.18-89.92-0.47-122.36,1.73c-5.05,0.34-9.5-1.91-9.5-4.84v-0.11
	C351.58,192.16,354.64,190.11,358.78,189.76z"/>
<path class="st3" d="M151.82,295.54c18.87-1.49,70.47-4.79,134.28-2.64c4.79,0.16,8.54,2.29,8.54,4.87v0.93
	c0,2.72-4.11,4.91-9.16,4.87c-25.28-0.18-96.41-0.47-131.2,1.73c-5.41,0.34-10.18-1.91-10.18-4.84v-0.11
	C144.1,297.94,147.38,295.89,151.82,295.54z"/>
<path class="st3" d="M358.78,238.13c17.6-1.49,65.73-4.79,125.23-2.64c4.47,0.16,7.97,2.29,7.97,4.87v0.93
	c0,2.72-3.83,4.91-8.55,4.87c-23.57-0.18-89.92-0.47-122.36,1.73c-5.05,0.34-9.5-1.91-9.5-4.84v-0.11
	C351.58,240.54,354.64,238.48,358.78,238.13z"/>
<path class="st3" d="M356.3,212.64c17.6-1.49,65.73-4.79,125.23-2.64c4.47,0.16,7.97,2.29,7.97,4.87v0.93
	c0,2.72-3.83,4.91-8.54,4.87c-23.57-0.18-89.92-0.47-122.36,1.73c-5.05,0.34-9.5-1.91-9.5-4.84v-0.11
	C349.09,215.04,352.15,212.99,356.3,212.64z"/>
<polygon class="st4" points="310.9,275.95 361.73,477.81 593.06,417.4 510.55,233.95 "/>
<polygon class="st0" points="324.53,281.45 334.03,317.01 378.63,307.98 368.31,273.35 "/>
<polyline class="st5" points="343.2,304.99 335.83,285.1 351.58,295.05 351.58,281.42 362.36,304.99 "/>
<polyline class="st5" points="367.51,289.52 371.2,298.36 362.36,295.18 374.23,293.2 "/>
<path class="st6" d="M440.48,317.98c-11.77,1.64-30.95-27.68-30.95-27.68s3.94-22.44,32.2-10.39c1.02,1.19,2.08,2.45,3.18,3.83
	C444.92,283.75,452.28,316.34,440.48,317.98z"/>
<path class="st7" d="M530.36,430.86c0,0-19.15-120.39-38.3-121.71c-19.15-1.32-44.86,0-44.86,0c-2.12,24.61-23.18,0.74-24.28-0.52
	c1.08,2.64-48.07,49.34-54.62,89.62l52.39,28.2l6.58-6.62l-1.34,6.62v8.12l83.82-21.38l-7.08-47.03
	c-2.55-6.43-5.26-11.92-7.81-16.51l-12.34-17.72c0.39,0.41,5.93,6.17,12.34,17.72l6.8,9.74l1.02,6.77
	c6.58,16.47,12.38,39.11,12.98,68.41L530.36,430.86z M431.65,398.25l-0.17,0.82l-5.56-0.82l-7.53,10.52l-28.74-19.15l18.09-30.23
	h15.06c0,0,3.27,5.19,3.12,7.4c-0.17,2.21,7.94,8.27,7.94,8.27L431.65,398.25z"/>
<polyline class="st7" points="431.48,399.07 447.19,401.41 447.19,413.18 430.18,416.88 427.26,419.83 "/>
<path class="st7" d="M502.66,366.16c-2.55-6.43-5.26-11.92-7.81-16.51l6.8,9.74L502.66,366.16z"/>
<path class="st8" d="M441.74,279.92c-28.26-12.05-32.2,10.39-32.2,10.39s-8.01-15.99-3.57-20.8c-0.5-0.95-0.78-2.06-0.78-3.22
	c0-3.9,3.16-7.06,7.06-7.06c3.9,0,7.06,3.16,7.06,7.06v0.15C424.64,265.52,430.33,266.71,441.74,279.92z"/>
<polyline class="st9" points="425.91,434.55 430.2,458.47 513.5,438.18 509.74,413.19 "/>
<polygon class="st0" points="352.39,440.73 356.27,439.77 578.35,384.7 587.71,405.5 358.33,464.29 "/>
</svg>
