<?xml version="1.0" encoding="utf-8"?>
<!-- Generator: Adobe Illustrator 23.0.1, SVG Export Plug-In . SVG Version: 6.00 Build 0)  -->
<svg version="1.1" id="Layer_1" xmlns="http://www.w3.org/2000/svg" xmlns:xlink="http://www.w3.org/1999/xlink" x="0px" y="0px"
	 viewBox="0 0 822 737" style="enable-background:new 0 0 822 737;" xml:space="preserve">
<style type="text/css">
	.st0{fill:#D48028;}
	.st1{fill:#F7A154;stroke:#020202;stroke-width:4;stroke-miterlimit:10;}
	.st2{fill:none;stroke:#000000;stroke-width:4;stroke-miterlimit:10;}
	.st3{fill:#FFDCAE;stroke:#000000;stroke-width:4;stroke-miterlimit:10;}
</style>
<rect class="st0" width="822" height="737"/>
<polygon class="st1" points="264.82,275.25 268.26,450.71 260.01,507.82 577.22,507.82 571.71,454.84 577.22,275.25 577.22,270.43 
	264.82,270.43 "/>
<path class="st2" d="M482.33,255.64c0,0-51.55-9.7-2.3,45.47C480.04,301.11,540.3,251.33,482.33,255.64z"/>
<polygon class="st1" points="264.82,270.43 326.75,253.92 273.08,240.84 566.89,240.84 513.91,251.85 577.22,270.43 "/>
<polygon class="st3" points="480.04,301.11 500.9,324.28 500.9,393.79 457.56,393.79 457.56,320.83 "/>
<polygon class="st1" points="500.9,189.24 471.31,167.22 373.6,167.22 339.48,194.94 343.8,269.23 380.48,270.43 379.1,197.49 
	465.11,196.81 465.8,270.43 500.9,268.78 "/>
<polygon class="st1" points="349.51,270.43 345.39,196.81 372.91,173.41 467.18,173.41 494.7,194.74 494.7,268.37 465.8,270.43 
	465.11,196.81 379.1,197.49 380.48,270.43 "/>
</svg>
